<?xml version="1.0" encoding="utf-8"?>
<!-- Generator: Adobe Illustrator 28.2.0, SVG Export Plug-In . SVG Version: 6.00 Build 0)  -->
<svg version="1.1" id="Layer_1" xmlns="http://www.w3.org/2000/svg" xmlns:xlink="http://www.w3.org/1999/xlink" x="0px" y="0px"
	 viewBox="0 0 2000 317" style="enable-background:new 0 0 2000 317;" xml:space="preserve">
<g>
	<g>
		<path d="M316.94,230.69v86.28h-43.78C277.85,293.98,289.65,259.96,316.94,230.69z"/>
		<path d="M316.94,184.6v22.33c-13.09,7.84-30.63,20.71-49.52,41.19c-18.06,19.56-26.39,46.01-30.12,68.84h-83.62
			c18.79-89.13,96.86-106.96,124.88-117.68S316.94,184.6,316.94,184.6z"/>
		<path d="M316.94,142.97v19.68c0,0-38.38,12.4-107.96,33.25s-98.35,88.56-107.39,121.06H0V253.7
			c50.23-43.49,101.56-85.12,177.49-93.96C244.14,151.97,264.46,155.04,316.94,142.97z"/>
		<path d="M316.94,103.98v17.88c-23.3,3.4-60.64,6.75-119.47,7.74C115.66,130.97,43.1,167.5,0,194.87v-79.6
			c50.73-23.18,117.53-43.21,179.92-29.19C244.74,100.63,289.28,104.02,316.94,103.98z"/>
		<path d="M316.94,70.8v13.26c-106.57-7.84-89.49-21.14-178.15-34.79C83.21,40.72,34.72,56.44,0,68.24V0.03h126.74
			c31.73,3.65,63.4,19.01,88.13,33.86C252.13,56.27,293.3,65.06,316.94,70.8z"/>
		<path d="M316.94,0.04v49.24c-11.07-2.77-21.35-6.05-30.87-9.64c-4.18-1.56-8.22-3.21-12.1-4.89C246.35,22.88,226,9.03,211.98,0.04
			H316.94z"/>
	</g>
	<g>
		<path d="M474.06,188.97c1.02,7.21,3.03,12.6,6.01,16.17c5.47,6.5,14.84,9.75,28.11,9.75c7.95,0,14.4-0.86,19.36-2.57
			c9.41-3.28,14.11-9.39,14.11-18.31c0-5.21-2.3-9.25-6.91-12.1c-4.61-2.79-11.92-5.25-21.92-7.39l-17.09-3.75
			c-16.8-3.71-28.34-7.75-34.62-12.1c-10.64-7.28-15.96-18.67-15.96-34.17c0-14.14,5.2-25.88,15.61-35.24
			c10.41-9.35,25.7-14.03,45.87-14.03c16.84,0,31.21,4.41,43.1,13.23c11.89,8.82,18.12,21.62,18.7,38.4h-31.7
			c-0.59-9.5-4.83-16.24-12.74-20.24c-5.27-2.64-11.82-3.96-19.65-3.96c-8.71,0-15.67,1.71-20.86,5.14
			c-5.2,3.43-7.79,8.21-7.79,14.35c0,5.64,2.56,9.85,7.69,12.64c3.29,1.86,10.28,4.03,20.97,6.53l27.71,6.53
			c12.14,2.86,21.24,6.68,27.31,11.46c9.41,7.43,14.12,18.17,14.12,32.24c0,14.42-5.58,26.4-16.73,35.94
			c-11.15,9.53-26.9,14.3-47.25,14.3c-20.79,0-37.13-4.69-49.04-14.08c-11.91-9.39-17.86-22.29-17.86-38.72H474.06z"/>
		<path d="M596.59,79.83h33.52v96.96c0,10.84,1.28,18.76,3.84,23.76c3.98,8.85,12.66,13.27,26.04,13.27
			c13.3,0,21.95-4.42,25.93-13.27c2.56-4.99,3.84-12.91,3.84-23.76V79.83h33.52v97.04c0,16.78-2.6,29.85-7.81,39.2
			c-9.69,17.14-28.19,25.71-55.49,25.71s-45.84-8.57-55.6-25.71c-5.2-9.35-7.81-22.42-7.81-39.2V79.83z"/>
		<path d="M860.99,169.37c-9.24,7.71-22.44,11.57-39.59,11.57h-32.87v56.77h-32.77V79.83h67.79c15.63,0,28.09,4.07,37.38,12.21
			s13.94,20.74,13.94,37.81C874.85,148.49,870.23,161.66,860.99,169.37z M835.81,112.5c-4.18-3.5-10.03-5.25-17.56-5.25h-29.73
			v46.48h29.73c7.53,0,13.38-1.89,17.56-5.68c4.18-3.78,6.27-9.78,6.27-17.99C842.08,121.85,839.98,116,835.81,112.5z"/>
		<path d="M1007.29,169.37c-9.24,7.71-22.44,11.57-39.59,11.57h-32.87v56.77h-32.77V79.83h67.79c15.63,0,28.09,4.07,37.38,12.21
			s13.94,20.74,13.94,37.81C1021.16,148.49,1016.53,161.66,1007.29,169.37z M982.12,112.5c-4.18-3.5-10.03-5.25-17.56-5.25h-29.73
			v46.48h29.73c7.53,0,13.38-1.89,17.56-5.68c4.18-3.78,6.27-9.78,6.27-17.99C988.38,121.85,986.29,116,982.12,112.5z"/>
		<path d="M1047.61,79.83h32.99v129.49h78.83v28.38h-111.82V79.83z"/>
		<path d="M1251.54,79.83h37.38l-52.8,98.68v59.2h-32.99v-59.2l-54.62-98.68h38.88l32.77,68.76L1251.54,79.83z"/>
		<path d="M1457.24,79.83h34.27l-53.82,157.88h-31.17l-53.39-157.88h35.24l34.27,119.85L1457.24,79.83z"/>
		<path d="M1627.91,107.79h-83.54v33.52h76.69v27.42h-76.69v40.59h87.4v28.38h-119.64V79.83h115.78V107.79z"/>
		<path d="M1687.57,237.71h-32.77V79.83h32.77V237.71z"/>
		<path d="M1717.88,79.83h34.58l62.67,110.08V79.83h30.74v157.88h-32.98l-64.27-112.02v112.02h-30.74V79.83z"/>
		<path d="M1900.61,188.97c1.02,7.21,3.03,12.6,6.01,16.17c5.47,6.5,14.84,9.75,28.11,9.75c7.95,0,14.4-0.86,19.36-2.57
			c9.41-3.28,14.11-9.39,14.11-18.31c0-5.21-2.3-9.25-6.91-12.1c-4.61-2.79-11.92-5.25-21.92-7.39l-17.09-3.75
			c-16.8-3.71-28.34-7.75-34.62-12.1c-10.64-7.28-15.96-18.67-15.96-34.17c0-14.14,5.2-25.88,15.61-35.24
			c10.41-9.35,25.7-14.03,45.87-14.03c16.84,0,31.21,4.41,43.1,13.23c11.89,8.82,18.12,21.62,18.7,38.4h-31.7
			c-0.59-9.5-4.83-16.24-12.74-20.24c-5.27-2.64-11.82-3.96-19.65-3.96c-8.71,0-15.67,1.71-20.86,5.14
			c-5.2,3.43-7.79,8.21-7.79,14.35c0,5.64,2.56,9.85,7.69,12.64c3.29,1.86,10.28,4.03,20.97,6.53l27.71,6.53
			c12.14,2.86,21.24,6.68,27.31,11.46c9.41,7.43,14.12,18.17,14.12,32.24c0,14.42-5.58,26.4-16.73,35.94
			c-11.15,9.53-26.9,14.3-47.25,14.3c-20.79,0-37.13-4.69-49.04-14.08c-11.91-9.39-17.86-22.29-17.86-38.72H1900.61z"/>
	</g>
</g>
</svg>
